<svg width="12" height="12" viewBox="0 0 12 12" fill="none" xmlns="http://www.w3.org/2000/svg">
<path d="M11.6697 10.0797L7.59 6L11.6697 1.92034C12.1101 1.47989 12.1101 0.770793 11.6697 0.33034C11.2292 -0.110113 10.5201 -0.110113 10.0797 0.33034L6 4.41L1.92034 0.33034C1.47989 -0.110113 0.770793 -0.110113 0.33034 0.33034C-0.110113 0.770793 -0.110113 1.47989 0.33034 1.92034L4.41 6L0.33034 10.0797C-0.110113 10.5201 -0.110113 11.2292 0.33034 11.6697C0.770793 12.1101 1.47989 12.1101 1.92034 11.6697L6 7.59L10.0797 11.6697C10.5201 12.1101 11.2292 12.1101 11.6697 11.6697C12.107 11.2292 12.107 10.517 11.6697 10.0797Z" fill="black" fill-opacity="0.7"/>
</svg>