<svg width="30" height="30" viewBox="0 0 30 30" fill="none" xmlns="http://www.w3.org/2000/svg">
<circle cx="15" cy="15" r="15" fill="black"/>
<path d="M14.272 17.432L14.272 9.328L15.696 9.328L15.696 17.432L14.272 17.432ZM13.968 19.976C13.968 19.8373 13.9973 19.7067 14.056 19.584C14.1093 19.4667 14.184 19.36 14.28 19.264C14.3707 19.1733 14.48 19.1013 14.608 19.048C14.7307 18.9947 14.8613 18.968 15 18.968C15.1387 18.968 15.2693 18.9947 15.392 19.048C15.5093 19.1013 15.6133 19.1733 15.704 19.264C15.7947 19.36 15.8667 19.4667 15.92 19.584C15.9733 19.7067 16 19.8373 16 19.976C16 20.1147 15.9733 20.2453 15.92 20.368C15.8667 20.496 15.7947 20.6053 15.704 20.696C15.6133 20.792 15.5093 20.8667 15.392 20.92C15.2693 20.9733 15.1387 21 15 21C14.8613 21 14.7307 20.9733 14.608 20.92C14.48 20.8667 14.3707 20.792 14.28 20.696C14.184 20.6053 14.1093 20.496 14.056 20.368C13.9973 20.2453 13.968 20.1147 13.968 19.976Z" fill="white"/>
</svg>
