<svg width="8" height="8" viewBox="0 0 8 8" fill="none" xmlns="http://www.w3.org/2000/svg">
<path d="M5.71274 3.421C5.57197 3.50167 5.43121 3.57133 5.29044 3.63C5.1575 3.68133 5.01673 3.718 4.86814 3.74C5.17314 3.784 5.45467 3.88667 5.71274 4.048L7.57788 5.071L6.89752 6.171L5.03237 5.148C4.89161 5.06733 4.75866 4.983 4.63353 4.895C4.51623 4.807 4.41457 4.71167 4.32854 4.609C4.43021 4.851 4.48104 5.12967 4.48104 5.445V7.469H3.09684V5.456C3.09684 5.30933 3.10466 5.16633 3.1203 5.027C3.14377 4.88767 3.17896 4.75567 3.22588 4.631C3.13986 4.73367 3.03819 4.82533 2.92089 4.906C2.80358 4.98667 2.67846 5.06733 2.54551 5.148L0.692098 6.16L0 5.06L1.86514 4.048C2.16232 3.88667 2.44385 3.784 2.70974 3.74C2.43603 3.696 2.1545 3.58967 1.86514 3.421L0 2.398L0.680367 1.298L2.54551 2.332C2.68628 2.41267 2.81531 2.497 2.93262 2.585C3.04992 2.66567 3.1555 2.75733 3.24934 2.86C3.14768 2.618 3.09684 2.343 3.09684 2.035V0H4.48104V2.013C4.48104 2.167 4.46931 2.31367 4.44585 2.453C4.43021 2.59233 4.39502 2.72433 4.34027 2.849C4.43412 2.74633 4.53969 2.65467 4.657 2.574C4.7743 2.49333 4.89943 2.41267 5.03237 2.332L6.88579 1.32L7.57788 2.42L5.71274 3.421Z" fill="#FF9900"/>
</svg>
