<svg width="20" height="20" viewBox="0 0 20 20" fill="none" xmlns="http://www.w3.org/2000/svg">
<g clip-path="url(#clip0_2296_16319)">
<path d="M4.16309 9.51223C4.16309 9.04882 4.54044 8.65858 5.01519 8.65858H6.42724C6.8898 8.65858 7.27934 9.03662 7.27934 9.51223V14.8659C7.43758 14.8171 7.64452 14.7683 7.86363 14.7196C8.18013 14.6464 8.41141 14.3537 8.41141 14.0244V7.39028C8.41141 6.91467 8.78877 6.53662 9.26351 6.53662H10.6756C11.1381 6.53662 11.5277 6.91467 11.5277 7.39028V13.5488C11.5277 13.5488 11.8807 13.4025 12.2215 13.2561C12.4893 13.1464 12.6597 12.8903 12.6597 12.5976V5.26833C12.6597 4.80492 13.0371 4.41467 13.5118 4.41467H14.9239C15.3865 4.41467 15.776 4.79272 15.776 5.26833V11.3171C17.0054 10.4269 18.2471 9.3537 19.2331 8.07321C19.5252 7.69516 19.6104 7.19516 19.4522 6.74394C17.6141 1.50004 11.9294 -1.25606 6.71938 0.561016C1.49723 2.37809 -1.25383 8.07321 0.559922 13.2927C0.766861 13.8781 1.02249 14.4513 1.33898 14.9878C1.58244 15.4147 2.05718 15.6586 2.5441 15.6098C2.8119 15.5854 3.14057 15.5488 3.54227 15.5122C3.89528 15.4756 4.16309 15.1708 4.16309 14.8049V9.51223Z" fill="black"/>
<path d="M4.12659 18.0852C8.59403 21.3413 14.8387 20.3535 18.0889 15.8779C19.3305 14.1705 20 12.0974 20 9.98761C20 9.75591 19.9878 9.5242 19.9756 9.30469C16.3238 14.7559 9.58003 17.3047 4.12659 18.0852Z" fill="#979695"/>
</g>
<defs>
<clipPath id="clip0_2296_16319">
<rect width="20" height="20" fill="white"/>
</clipPath>
</defs>
</svg>
