<svg width="20" height="20" viewBox="0 0 20 20" fill="none" xmlns="http://www.w3.org/2000/svg">
<g clip-path="url(#clip0_2291_3221)">
<path d="M4.16303 9.51223C4.16303 9.04882 4.54038 8.65858 5.01512 8.65858H6.42718C6.88974 8.65858 7.27927 9.03662 7.27927 9.51223V14.8659C7.43752 14.8171 7.64446 14.7683 7.86357 14.7196C8.18007 14.6464 8.41135 14.3537 8.41135 14.0244V7.39028C8.41135 6.91467 8.78871 6.53662 9.26345 6.53662H10.6755C11.1381 6.53662 11.5276 6.91467 11.5276 7.39028V13.5488C11.5276 13.5488 11.8806 13.4025 12.2215 13.2561C12.4893 13.1464 12.6597 12.8903 12.6597 12.5976V5.26833C12.6597 4.80492 13.037 4.41467 13.5118 4.41467H14.9238C15.3864 4.41467 15.7759 4.79272 15.7759 5.26833V11.3171C17.0054 10.4269 18.247 9.3537 19.233 8.07321C19.5252 7.69516 19.6104 7.19516 19.4521 6.74394C17.614 1.50004 11.9293 -1.25606 6.71932 0.561016C1.49717 2.37809 -1.25389 8.07321 0.559861 13.2927C0.7668 13.8781 1.02243 14.4513 1.33892 14.9878C1.58238 15.4147 2.05712 15.6586 2.54404 15.6098C2.81184 15.5854 3.14051 15.5488 3.54221 15.5122C3.89522 15.4756 4.16303 15.1708 4.16303 14.8049V9.51223Z" fill="white"/>
<path d="M4.12671 18.0852C8.59415 21.3413 14.8388 20.3535 18.089 15.8779C19.3306 14.1705 20.0001 12.0974 20.0001 9.98761C20.0001 9.75591 19.9879 9.5242 19.9758 9.30469C16.3239 14.7559 9.58015 17.3047 4.12671 18.0852Z" fill="#979695"/>
</g>
<defs>
<clipPath id="clip0_2291_3221">
<rect width="20" height="20" fill="white"/>
</clipPath>
</defs>
</svg>
