<svg width="28" height="28" viewBox="0 0 28 28" fill="none" xmlns="http://www.w3.org/2000/svg">
<circle cx="14" cy="14" r="13" fill="black" stroke="#FF9900" stroke-width="2"/>
<path d="M19.6697 18.0797L15.59 14L19.6697 9.92034C20.1101 9.47989 20.1101 8.77079 19.6697 8.33034C19.2292 7.88989 18.5201 7.88989 18.0797 8.33034L14 12.41L9.92034 8.33034C9.47989 7.88989 8.77079 7.88989 8.33034 8.33034C7.88989 8.77079 7.88989 9.47989 8.33034 9.92034L12.41 14L8.33034 18.0797C7.88989 18.5201 7.88989 19.2292 8.33034 19.6697C8.77079 20.1101 9.47989 20.1101 9.92034 19.6697L14 15.59L18.0797 19.6697C18.5201 20.1101 19.2292 20.1101 19.6697 19.6697C20.107 19.2292 20.107 18.517 19.6697 18.0797Z" fill="#FF9900"/>
</svg>
