<svg width="130" height="51" viewBox="0 0 130 51" fill="none" xmlns="http://www.w3.org/2000/svg">
<g filter="url(#filter0_d_1066_169)">
<mask id="path-1-outside-1_1066_169" maskUnits="userSpaceOnUse" x="6" y="6" width="118" height="39" fill="black">
<rect fill="white" x="6" y="6" width="118" height="39"/>
<path d="M52.4796 33.9211H10.2923L8 36.9864H57.3031H91.6524L93.9601 33.9063H52.4694L52.4796 33.9211ZM29.5764 31.2656H34.9388V14.2066H30.3135V26.6849L15.1973 14.2066H10.3279V31.2656H14.9533V19.1426L29.5764 31.2656ZM43.4474 17.7507H60.3528V14.2066H38.8221V31.2656H43.4474V24.4637H59.265V21.0085H43.4474V17.7507ZM83.5355 17.6767C84.0296 16.4741 84.6353 15.3176 85.3448 14.2214H62.0402V17.6767H72.3583V31.2656H76.9837V17.6767H83.5355ZM122.998 25.5003V25.3522V25.0857V24.7352V24.7105V24.6859V24.6562V24.6315V24.6068C123.001 24.5971 123.001 24.5869 122.998 24.5772V24.5476V24.518C122.746 19.8872 120.713 15.5171 117.3 12.2729C113.888 9.0287 109.346 7.1469 104.573 7H103.302C98.5649 7.15588 94.0576 9.02089 90.6599 12.2309C87.2622 15.4409 85.2187 19.7654 84.928 24.3601V24.3897V24.4785C84.9308 24.4882 84.9308 24.4984 84.928 24.5081V24.5328V24.5624V24.592V24.6167V24.6414V24.7698V24.7944V24.8191V24.9573V25.2633V25.2881V25.3325V25.52C84.9113 27.4132 85.1943 29.2978 85.7665 31.1076H89.4165C88.4805 28.8006 88.1376 26.3068 88.4171 23.8422C88.6972 21.3775 89.5915 19.0163 91.023 16.9628C92.4539 14.9093 94.3789 13.2256 96.6308 12.0573C98.8835 10.8889 101.395 10.2713 103.948 10.2578C107.236 10.2521 110.441 11.2635 113.097 13.1454L106.779 18.0222L108.37 18.8465L103.623 27.5142L102.891 18.3529H98.8702L100.812 32.0158C100.641 32.4995 100.385 32.9505 100.054 33.3486C99.8146 33.6137 99.5031 33.8085 99.1546 33.9113C99.041 33.9422 98.926 33.9669 98.8089 33.9854H96.1506L93.7928 37.0506H99.1957C99.5804 37.0277 99.9631 36.9733 100.339 36.8877C100.882 36.7539 101.381 36.491 101.793 36.1226C102.317 35.6144 102.778 35.0477 103.165 34.4345C103.674 33.6843 104.238 32.7019 104.924 31.4728L111.389 20.3273L113.081 21.1713V13.1454C115.756 15.0371 117.746 17.7 118.771 20.7546C119.795 23.8093 119.801 27.1001 118.787 30.1581C117.773 33.2161 115.792 35.8855 113.125 37.786C110.457 39.6865 107.241 40.7212 103.933 40.7427C102.175 40.7451 100.43 40.4546 98.7733 39.8839H91.9674C94.7644 42.0807 98.1447 43.4636 101.717 43.8727C105.289 44.2818 108.908 43.7003 112.154 42.1956C115.4 40.6909 118.141 38.3243 120.061 35.3698C121.98 32.4153 122.998 28.9935 122.998 25.5003Z"/>
</mask>
<path d="M52.4796 33.9211H10.2923L8 36.9864H57.3031H91.6524L93.9601 33.9063H52.4694L52.4796 33.9211ZM29.5764 31.2656H34.9388V14.2066H30.3135V26.6849L15.1973 14.2066H10.3279V31.2656H14.9533V19.1426L29.5764 31.2656ZM43.4474 17.7507H60.3528V14.2066H38.8221V31.2656H43.4474V24.4637H59.265V21.0085H43.4474V17.7507ZM83.5355 17.6767C84.0296 16.4741 84.6353 15.3176 85.3448 14.2214H62.0402V17.6767H72.3583V31.2656H76.9837V17.6767H83.5355ZM122.998 25.5003V25.3522V25.0857V24.7352V24.7105V24.6859V24.6562V24.6315V24.6068C123.001 24.5971 123.001 24.5869 122.998 24.5772V24.5476V24.518C122.746 19.8872 120.713 15.5171 117.3 12.2729C113.888 9.0287 109.346 7.1469 104.573 7H103.302C98.5649 7.15588 94.0576 9.02089 90.6599 12.2309C87.2622 15.4409 85.2187 19.7654 84.928 24.3601V24.3897V24.4785C84.9308 24.4882 84.9308 24.4984 84.928 24.5081V24.5328V24.5624V24.592V24.6167V24.6414V24.7698V24.7944V24.8191V24.9573V25.2633V25.2881V25.3325V25.52C84.9113 27.4132 85.1943 29.2978 85.7665 31.1076H89.4165C88.4805 28.8006 88.1376 26.3068 88.4171 23.8422C88.6972 21.3775 89.5915 19.0163 91.023 16.9628C92.4539 14.9093 94.3789 13.2256 96.6308 12.0573C98.8835 10.8889 101.395 10.2713 103.948 10.2578C107.236 10.2521 110.441 11.2635 113.097 13.1454L106.779 18.0222L108.37 18.8465L103.623 27.5142L102.891 18.3529H98.8702L100.812 32.0158C100.641 32.4995 100.385 32.9505 100.054 33.3486C99.8146 33.6137 99.5031 33.8085 99.1546 33.9113C99.041 33.9422 98.926 33.9669 98.8089 33.9854H96.1506L93.7928 37.0506H99.1957C99.5804 37.0277 99.9631 36.9733 100.339 36.8877C100.882 36.7539 101.381 36.491 101.793 36.1226C102.317 35.6144 102.778 35.0477 103.165 34.4345C103.674 33.6843 104.238 32.7019 104.924 31.4728L111.389 20.3273L113.081 21.1713V13.1454C115.756 15.0371 117.746 17.7 118.771 20.7546C119.795 23.8093 119.801 27.1001 118.787 30.1581C117.773 33.2161 115.792 35.8855 113.125 37.786C110.457 39.6865 107.241 40.7212 103.933 40.7427C102.175 40.7451 100.43 40.4546 98.7733 39.8839H91.9674C94.7644 42.0807 98.1447 43.4636 101.717 43.8727C105.289 44.2818 108.908 43.7003 112.154 42.1956C115.4 40.6909 118.141 38.3243 120.061 35.3698C121.98 32.4153 122.998 28.9935 122.998 25.5003Z" stroke="#00EBFF" stroke-width="2" mask="url(#path-1-outside-1_1066_169)"/>
</g>
<defs>
<filter id="filter0_d_1066_169" x="0.00344849" y="0" width="129.997" height="51" filterUnits="userSpaceOnUse" color-interpolation-filters="sRGB">
<feFlood flood-opacity="0" result="BackgroundImageFix"/>
<feColorMatrix in="SourceAlpha" type="matrix" values="0 0 0 0 0 0 0 0 0 0 0 0 0 0 0 0 0 0 127 0" result="hardAlpha"/>
<feOffset/>
<feGaussianBlur stdDeviation="3"/>
<feColorMatrix type="matrix" values="0 0 0 0 0 0 0 0 0 0.921569 0 0 0 0 1 0 0 0 1 0"/>
<feBlend mode="normal" in2="BackgroundImageFix" result="effect1_dropShadow_1066_169"/>
<feBlend mode="normal" in="SourceGraphic" in2="effect1_dropShadow_1066_169" result="shape"/>
</filter>
</defs>
</svg>
