<svg width="770" height="308" viewBox="0 0 770 308" fill="none" xmlns="http://www.w3.org/2000/svg">
<g filter="url(#filter0_d_1337_240)">
<mask id="path-1-outside-1_1337_240" maskUnits="userSpaceOnUse" x="42" y="42" width="686" height="224" fill="black">
<rect fill="white" x="42" y="42" width="686" height="224"/>
<path d="M312.142 202.706H66.3554L53 220.435H340.244H540.366L553.811 202.62H312.083L312.142 202.706ZM178.706 187.347H209.948V88.6816H183V160.853L94.9319 88.6816H66.5627V187.347H93.5103V117.23L178.706 187.347ZM259.52 109.18H358.012V88.6816H232.572V187.347H259.52V148.006H351.675V128.022H259.52V109.18ZM493.076 108.752C495.955 101.796 499.484 95.1072 503.618 88.7672H367.843V108.752H427.957V187.347H454.905V108.752H493.076ZM722.988 154.002V153.145V151.604V149.577V149.434V149.291V149.12V148.977V148.834C723.004 148.778 723.004 148.719 722.988 148.663V148.492V148.321C721.518 121.537 709.673 96.2608 689.792 77.4972C669.912 58.7336 643.449 47.8497 615.642 47H608.239C580.639 47.9016 554.379 58.6884 534.584 77.2543C514.788 95.8203 502.883 120.832 501.189 147.407V147.578V148.092C501.206 148.148 501.206 148.207 501.189 148.263V148.406V148.577V148.749V148.892V149.034V149.777V149.919V150.062V150.861V152.631V152.774V153.031V154.116C501.092 165.066 502.741 175.966 506.074 186.433H527.34C521.886 173.09 519.889 158.666 521.517 144.412C523.149 130.156 528.359 116.5 536.699 104.623C545.036 92.746 556.251 83.0073 569.371 76.2501C582.495 69.4928 597.125 65.9205 611.999 65.8423C631.157 65.8094 649.828 71.6591 665.303 82.5435L628.494 110.75L637.764 115.518L610.107 165.65L605.843 112.663H582.418L593.731 191.686C592.736 194.484 591.241 197.092 589.317 199.395C587.92 200.928 586.105 202.055 584.075 202.649C583.413 202.828 582.743 202.971 582.06 203.078H566.573L552.836 220.806H584.314C586.556 220.674 588.785 220.359 590.978 219.864C594.137 219.09 597.048 217.569 599.444 215.439C602.502 212.5 605.186 209.222 607.439 205.675C610.403 201.336 613.689 195.655 617.688 188.546L655.354 124.082L665.213 128.964V82.5435C680.794 93.4849 692.391 108.886 698.36 126.554C704.329 144.221 704.362 163.255 698.454 180.941C692.55 198.628 681.005 214.067 665.465 225.059C649.925 236.052 631.186 242.036 611.914 242.161C601.673 242.175 591.505 240.494 581.853 237.194H542.202C558.497 249.899 578.191 257.898 599.001 260.264C619.816 262.63 640.899 259.267 659.809 250.564C678.723 241.861 694.694 228.173 705.876 211.085C717.055 193.997 722.988 174.206 722.988 154.002Z"/>
</mask>
<path d="M312.142 202.706H66.3554L53 220.435H340.244H540.366L553.811 202.62H312.083L312.142 202.706ZM178.706 187.347H209.948V88.6816H183V160.853L94.9319 88.6816H66.5627V187.347H93.5103V117.23L178.706 187.347ZM259.52 109.18H358.012V88.6816H232.572V187.347H259.52V148.006H351.675V128.022H259.52V109.18ZM493.076 108.752C495.955 101.796 499.484 95.1072 503.618 88.7672H367.843V108.752H427.957V187.347H454.905V108.752H493.076ZM722.988 154.002V153.145V151.604V149.577V149.434V149.291V149.12V148.977V148.834C723.004 148.778 723.004 148.719 722.988 148.663V148.492V148.321C721.518 121.537 709.673 96.2608 689.792 77.4972C669.912 58.7336 643.449 47.8497 615.642 47H608.239C580.639 47.9016 554.379 58.6884 534.584 77.2543C514.788 95.8203 502.883 120.832 501.189 147.407V147.578V148.092C501.206 148.148 501.206 148.207 501.189 148.263V148.406V148.577V148.749V148.892V149.034V149.777V149.919V150.062V150.861V152.631V152.774V153.031V154.116C501.092 165.066 502.741 175.966 506.074 186.433H527.34C521.886 173.09 519.889 158.666 521.517 144.412C523.149 130.156 528.359 116.5 536.699 104.623C545.036 92.746 556.251 83.0073 569.371 76.2501C582.495 69.4928 597.125 65.9205 611.999 65.8423C631.157 65.8094 649.828 71.6591 665.303 82.5435L628.494 110.75L637.764 115.518L610.107 165.65L605.843 112.663H582.418L593.731 191.686C592.736 194.484 591.241 197.092 589.317 199.395C587.92 200.928 586.105 202.055 584.075 202.649C583.413 202.828 582.743 202.971 582.06 203.078H566.573L552.836 220.806H584.314C586.556 220.674 588.785 220.359 590.978 219.864C594.137 219.09 597.048 217.569 599.444 215.439C602.502 212.5 605.186 209.222 607.439 205.675C610.403 201.336 613.689 195.655 617.688 188.546L655.354 124.082L665.213 128.964V82.5435C680.794 93.4849 692.391 108.886 698.36 126.554C704.329 144.221 704.362 163.255 698.454 180.941C692.55 198.628 681.005 214.067 665.465 225.059C649.925 236.052 631.186 242.036 611.914 242.161C601.673 242.175 591.505 240.494 581.853 237.194H542.202C558.497 249.899 578.191 257.898 599.001 260.264C619.816 262.63 640.899 259.267 659.809 250.564C678.723 241.861 694.694 228.173 705.876 211.085C717.055 193.997 722.988 174.206 722.988 154.002Z" stroke="#00EBFF" stroke-width="10" mask="url(#path-1-outside-1_1337_240)"/>
</g>
<g filter="url(#filter1_b_1337_240)">
<path d="M128.669 259.028H135.339C135.58 259.028 135.735 258.915 135.834 258.703C135.934 258.476 135.905 258.278 135.75 258.108L118.021 239.601C117.922 239.501 117.809 239.459 117.653 239.459H112.145C111.989 239.459 111.847 239.501 111.734 239.601L93.9629 258.108C93.8071 258.278 93.7646 258.476 93.8496 258.703C93.9346 258.915 94.1045 259.028 94.3594 259.028H101C101.156 259.028 101.298 258.972 101.411 258.858L103.464 256.734C103.507 256.678 103.578 256.649 103.648 256.649H126.036C126.106 256.649 126.177 256.678 126.234 256.734L128.287 258.858C128.386 258.972 128.514 259.028 128.669 259.028ZM108.52 251.495L114.693 245.081C114.821 244.953 114.948 244.953 115.076 245.081L121.221 251.495C121.377 251.651 121.235 251.948 121.009 251.948H108.718C108.449 251.948 108.364 251.651 108.52 251.495ZM191.542 254.016V239.94C191.542 239.671 191.287 239.431 190.989 239.431H186.203C185.906 239.431 185.651 239.671 185.651 239.94V258.448C185.651 258.745 185.906 259 186.203 259H223.204C223.487 259 223.728 258.745 223.728 258.448V254.851C223.728 254.554 223.473 254.299 223.204 254.299H191.797C191.627 254.299 191.542 254.2 191.542 254.016ZM311.763 243.834C311.026 242.093 309.681 240.719 307.939 239.983C307.019 239.615 306.084 239.431 305.121 239.431H273.827C273.53 239.431 273.275 239.671 273.275 239.94V258.448C273.275 258.745 273.53 259 273.827 259H278.614C278.939 259 279.166 258.745 279.166 258.448V253.874H305.121C306.098 253.874 307.033 253.69 307.939 253.322C309.681 252.585 311.026 251.198 311.763 249.456C312.541 247.686 312.541 245.604 311.763 243.834ZM303.875 249.173H279.421C279.251 249.159 279.166 249.074 279.166 248.904V244.387C279.166 244.203 279.251 244.118 279.421 244.118H303.932C304.626 244.118 305.235 244.373 305.73 244.882C306.226 245.378 306.467 245.987 306.452 246.709C306.438 247.375 306.169 247.955 305.674 248.451C305.178 248.932 304.569 249.173 303.875 249.173ZM397.503 239.94V246.582C397.489 246.766 397.39 246.851 397.206 246.851H368.376C368.206 246.836 368.121 246.751 368.121 246.582V239.94C368.121 239.671 367.866 239.431 367.569 239.431H362.783C362.485 239.431 362.23 239.671 362.23 239.94V258.448C362.23 258.745 362.485 259 362.783 259H367.569C367.895 259 368.121 258.745 368.121 258.448V251.835C368.121 251.651 368.206 251.552 368.376 251.552H397.206C397.404 251.552 397.503 251.651 397.503 251.835V258.448C397.503 258.745 397.758 259 398.027 259H402.842C403.111 259 403.352 258.745 403.352 258.448V239.94C403.352 239.671 403.111 239.431 402.842 239.431H398.027C397.744 239.431 397.503 239.671 397.503 239.94ZM488.002 259.028H494.672C494.912 259.028 495.068 258.915 495.167 258.703C495.266 258.476 495.238 258.278 495.082 258.108L477.354 239.601C477.255 239.501 477.141 239.459 476.985 239.459H471.477C471.321 239.459 471.18 239.501 471.067 239.601L453.296 258.108C453.14 258.278 453.097 258.476 453.182 258.703C453.267 258.915 453.437 259.028 453.692 259.028H460.333C460.489 259.028 460.63 258.972 460.744 258.858L462.797 256.734C462.839 256.678 462.91 256.649 462.981 256.649H485.368C485.439 256.649 485.51 256.678 485.567 256.734L487.62 258.858C487.719 258.972 487.846 259.028 488.002 259.028ZM467.852 251.495L474.026 245.081C474.153 244.953 474.281 244.953 474.408 245.081L480.554 251.495C480.71 251.651 480.568 251.948 480.341 251.948H468.05C467.781 251.948 467.696 251.651 467.852 251.495Z" fill="#00EBFF"/>
</g>
<defs>
<filter id="filter0_d_1337_240" x="0.973633" y="0" width="769.026" height="308" filterUnits="userSpaceOnUse" color-interpolation-filters="sRGB">
<feFlood flood-opacity="0" result="BackgroundImageFix"/>
<feColorMatrix in="SourceAlpha" type="matrix" values="0 0 0 0 0 0 0 0 0 0 0 0 0 0 0 0 0 0 127 0" result="hardAlpha"/>
<feOffset/>
<feGaussianBlur stdDeviation="21"/>
<feColorMatrix type="matrix" values="0 0 0 0 0.0267187 0 0 0 0 0.923664 0 0 0 0 1 0 0 0 1 0"/>
<feBlend mode="normal" in2="BackgroundImageFix" result="effect1_dropShadow_1337_240"/>
<feBlend mode="normal" in="SourceGraphic" in2="effect1_dropShadow_1337_240" result="shape"/>
</filter>
<filter id="filter1_b_1337_240" x="48.7646" y="194.431" width="491.501" height="109.598" filterUnits="userSpaceOnUse" color-interpolation-filters="sRGB">
<feFlood flood-opacity="0" result="BackgroundImageFix"/>
<feGaussianBlur in="BackgroundImage" stdDeviation="22.5"/>
<feComposite in2="SourceAlpha" operator="in" result="effect1_backgroundBlur_1337_240"/>
<feBlend mode="normal" in="SourceGraphic" in2="effect1_backgroundBlur_1337_240" result="shape"/>
</filter>
</defs>
</svg>
