<svg xmlns="http://www.w3.org/2000/svg" width="502" height="441.156" viewBox="0 0 502 441.156">
  <path id="Path_1" data-name="Path 1" d="M47.8,42.426A42.854,42.854,0,0,0,5,85.236v18.02a6,6,0,1,0,12,0V85.236a30.84,30.84,0,0,1,30.8-30.81H464.2A30.845,30.845,0,0,1,495,85.236v82.85A30.845,30.845,0,0,1,464.2,198.9H442.7l-3.058-5.3,0,0q-.324-.537-.664-1.065-.429-.716-.885-1.414l-.006-.008q-1.2-1.773-2.565-3.42l0-.007q-1.367-1.646-2.893-3.149l-.006-.006q-1.525-1.5-3.193-2.843l-.006-.006q-1.668-1.341-3.463-2.51-1.507-.965-3.09-1.8-.3-.181-.611-.357l0,0a42.855,42.855,0,0,0-7.951-3.153l0,0q-2.06-.587-4.17-.966h0q-2.109-.379-4.248-.545h0a42.862,42.862,0,0,0-8.555.191q-1.741.23-3.459.6a7.2,7.2,0,0,0,.412-2.379V81.2a6,6,0,1,0-12,0V152.85l-42.63-73.7A7.9,7.9,0,0,0,324.9,83.1v89.025a6,6,0,0,0,12,0V98.367l43.954,75.992a7.194,7.194,0,0,0,2.418,2.5q-1.067.508-2.1,1.075L344.848,198.9H47.8A30.84,30.84,0,0,1,17,168.086v-18.02a6,6,0,1,0-12,0v18.02A42.853,42.853,0,0,0,47.8,210.9H324.07L102.314,338.928A42.806,42.806,0,0,0,86.647,397.4l37.388,64.758a42.525,42.525,0,0,0,25.992,19.945,43.037,43.037,0,0,0,11.149,1.477,42.56,42.56,0,0,0,21.334-5.752l278.853-161a42.806,42.806,0,0,0,15.668-58.475l-27.4-47.461H464.2A42.858,42.858,0,0,0,507,168.086V85.236A42.858,42.858,0,0,0,464.2,42.426ZM67.98,75.2c-23.46,0-42.545,23.088-42.545,51.467s19.085,51.465,42.545,51.465c12.342,0,24.049-6.431,32.116-17.645a6,6,0,1,0-9.741-7.007c-5.785,8.041-13.941,12.652-22.375,12.652-16.843,0-30.545-17.7-30.545-39.465S51.138,87.2,67.98,87.2c8.43,0,16.585,4.615,22.375,12.662a6,6,0,1,0,9.741-7.008C92.025,81.63,80.318,75.2,67.98,75.2Zm85.493,0c-25.444,0-46.143,23.088-46.143,51.467s20.7,51.465,46.143,51.465,46.144-23.086,46.144-51.465S178.916,75.2,153.473,75.2Zm292.091,0c-23.975,0-43.482,23.086-43.482,51.465s19.507,51.467,43.482,51.467c18.052,0,34.417-13.423,40.723-33.4a6,6,0,0,0-5.721-7.805l-24.056,0a6,6,0,1,0,0,12h15.007c-5.808,10.547-15.539,17.207-25.952,17.207-17.359,0-31.482-17.7-31.482-39.465S428.2,87.2,445.564,87.2c9.622,0,18.6,5.45,24.627,14.953a6,6,0,1,0,10.133-6.427C472.048,82.676,459.378,75.2,445.564,75.2Zm-137.488,0a6,6,0,0,0-5.826,6v90.932a6,6,0,0,0,12,0V81.2a6,6,0,0,0-6.174-6Zm-28.047,0a7.588,7.588,0,0,0-6.349,3.791l-25.905,44.865-25.9-44.865a7.588,7.588,0,0,0-14.16,3.793v89.342a6,6,0,0,0,12,0V99.252l20.519,35.541a8.71,8.71,0,0,0,15.086,0L275.84,99.25v72.879a6,6,0,0,0,12,0V82.785a7.588,7.588,0,0,0-7.811-7.584ZM153.473,87.2c18.827,0,34.144,17.7,34.144,39.467s-15.317,39.465-34.144,39.465-34.143-17.7-34.143-39.465S134.646,87.2,153.473,87.2ZM11.18,116.158a6,6,0,0,0-6.176,6v9.01a6,6,0,1,0,12,0v-9.01a6,6,0,0,0-5.825-6Zm392.785,68.084a30.849,30.849,0,0,1,23.224,12.289q.194.237.383.477l0,.006q.9,1.248,1.672,2.582l0,0,1.037,1.8,3.752,6.5.024.04,32.576,56.423a30.8,30.8,0,0,1-11.276,42.08l-278.853,161a30.8,30.8,0,0,1-42.082-11.278L97.039,391.4a30.8,30.8,0,0,1,11.275-42.082l278.854-161,.1-.056q.468-.259.945-.5.749-.387,1.519-.733.793-.366,1.606-.687.583-.226,1.174-.428.883-.307,1.783-.561.548-.151,1.1-.281.961-.231,1.936-.4.54-.091,1.082-.162.952-.13,1.91-.2.613-.043,1.227-.061,1.206-.052,2.414-.01Zm2,11.391a6,6,0,0,0-5.481,8.994l37.848,65.553-77.775-44.823a7.984,7.984,0,0,0-10.9,10.913l46.426,80.412a6,6,0,1,0,10.393-6l-38.946-67.455,80.163,46.2a7.245,7.245,0,0,0,9.89-9.9l-46.705-80.9a6,6,0,0,0-4.912-2.994Zm-92.1,59.533a43.734,43.734,0,0,0-22.972,5.807c-11.2,6.464-18.858,17.415-21.574,30.836a56.45,56.45,0,0,0,6.83,39.361c10.323,17.88,28.43,28.146,46.211,28.146a43.657,43.657,0,0,0,21.953-5.818c11.2-6.464,18.859-17.415,21.576-30.836a56.45,56.45,0,0,0-6.83-39.361C348.927,265.763,331.309,255.549,313.859,255.166Zm-.955,11.969c13.6,0,27.651,8.128,35.756,22.166a44.46,44.46,0,0,1,5.461,30.98c-2.023,10-7.641,18.106-15.814,22.824-17.127,9.89-40.353,1.844-51.772-17.935a44.46,44.46,0,0,1-5.461-30.981c2.024-10,7.639-18.1,15.813-22.824A31.81,31.81,0,0,1,312.9,267.135ZM224.25,306.9a43.74,43.74,0,0,0-22.973,5.807c-11.2,6.464-18.859,17.417-21.576,30.838a56.45,56.45,0,0,0,6.83,39.359c10.323,17.88,28.43,28.147,46.211,28.147a43.653,43.653,0,0,0,21.955-5.819c11.2-6.464,18.858-17.415,21.574-30.836a56.45,56.45,0,0,0-6.83-39.359C259.316,317.5,241.7,307.286,224.25,306.9Zm-.955,11.971c13.6,0,27.649,8.128,35.754,22.166a44.46,44.46,0,0,1,5.461,30.979c-2.024,10-7.639,18.107-15.813,22.826-17.124,9.886-40.353,1.843-51.773-17.938a44.46,44.46,0,0,1-5.461-30.98c2.023-10,7.641-18.106,15.814-22.824a31.813,31.813,0,0,1,16.018-4.229ZM142.65,350.924a29.763,29.763,0,1,0,11.856,57.207l.035-.014c.064-.027.131-.051.195-.078.51-.216,1.017-.449,1.532-.7.348-.173.682-.359,1.019-.543a17.751,17.751,0,1,1-2.322,31.592,6,6,0,1,0-6.174,10.289,29.753,29.753,0,1,0,3.617-52.852l-.043.018,0,0-.041.019c-.476.2-.951.421-1.416.653-.351.173-.69.36-1.027.545a17.746,17.746,0,1,1-1.809-33.4,6,6,0,1,0,3.393-11.512,29.763,29.763,0,0,0-8.811-1.226Z" transform="translate(-5.004 -42.426)" fill="currentColor"/>
</svg>
