<?xml version="1.0" encoding="utf-8"?>
<svg fill="none" viewBox="0 0 24 24" stroke="currentColor" xmlns="http://www.w3.org/2000/svg">
  <path stroke-linecap="round" stroke-linejoin="round" stroke-width="2" d="M 8.672 8.654 L 15.422 15.48 L 11.971 12.044 L 8.613 15.382 L 15.397 8.623 M 7.835 4.482 C 8.552 4.425 9.233 4.143 9.781 3.676 C 11.059 2.586 12.941 2.586 14.219 3.676 C 14.767 4.143 15.448 4.425 16.165 4.482 C 17.84 4.615 19.17 5.945 19.303 7.62 C 19.36 8.337 19.642 9.018 20.109 9.566 C 21.199 10.844 21.199 12.726 20.109 14.004 C 19.642 14.552 19.36 15.233 19.303 15.95 C 19.17 17.625 17.84 18.955 16.165 19.088 C 15.448 19.145 14.767 19.427 14.219 19.894 C 12.941 20.984 11.059 20.984 9.781 19.894 C 9.233 19.427 8.552 19.145 7.835 19.088 C 6.16 18.955 4.83 17.625 4.697 15.95 C 4.64 15.233 4.358 14.552 3.891 14.004 C 2.801 12.726 2.801 10.844 3.891 9.566 C 4.358 9.018 4.64 8.337 4.697 7.62 C 4.83 5.945 6.16 4.615 7.835 4.482 Z"/>
</svg>