<svg viewBox="0 0 21 21" fill="none" xmlns="http://www.w3.org/2000/svg">
  <path
    d="M16.0065 12.0323C15.4157 12.0362 14.833 12.171 14.3005 12.4269C13.768 12.6828 13.2987 13.0535 12.9265 13.5123L7.8265 11.1623C8.06629 10.4281 8.06629 9.63659 7.8265 8.90234L12.9265 6.55234C13.5281 7.27831 14.3668 7.76842 15.2946 7.93618C16.2225 8.10394 17.1797 7.93857 17.9974 7.46924C18.8152 6.99992 19.4409 6.25682 19.764 5.37108C20.0872 4.48535 20.0871 3.51392 19.7638 2.62825C19.4405 1.74257 18.8146 0.999584 17.9968 0.530409C17.179 0.0612344 16.2217 -0.103966 15.2939 0.0639647C14.3662 0.231895 13.5275 0.72216 12.926 1.44824C12.3245 2.17431 11.9989 3.08952 12.0065 4.03234C12.0095 4.27057 12.0329 4.50811 12.0765 4.74234L6.7965 7.17234C6.23358 6.62192 5.52074 6.24986 4.7473 6.10277C3.97386 5.95568 3.17422 6.04011 2.44855 6.34547C1.72288 6.65084 1.10346 7.16356 0.667898 7.8194C0.232336 8.47524 0 9.24504 0 10.0323C0 10.8196 0.232336 11.5894 0.667898 12.2453C1.10346 12.9011 1.72288 13.4138 2.44855 13.7192C3.17422 14.0246 3.97386 14.109 4.7473 13.9619C5.52074 13.8148 6.23358 13.4428 6.7965 12.8923L12.0765 15.3223C12.0329 15.5566 12.0095 15.7941 12.0065 16.0323C12.0065 16.8235 12.2411 17.5968 12.6806 18.2546C13.1201 18.9124 13.7449 19.4251 14.4758 19.7279C15.2067 20.0306 16.0109 20.1098 16.7869 19.9555C17.5628 19.8011 18.2755 19.4202 18.8349 18.8608C19.3943 18.3014 19.7753 17.5886 19.9296 16.8127C20.084 16.0368 20.0048 15.2325 19.702 14.5016C19.3993 13.7707 18.8866 13.146 18.2288 12.7065C17.571 12.2669 16.7976 12.0323 16.0065 12.0323ZM16.0065 2.03234C16.4021 2.03234 16.7887 2.14964 17.1176 2.3694C17.4465 2.58916 17.7029 2.90152 17.8543 3.26697C18.0056 3.63243 18.0452 4.03456 17.9681 4.42252C17.8909 4.81048 17.7004 5.16685 17.4207 5.44655C17.141 5.72626 16.7846 5.91674 16.3967 5.99391C16.0087 6.07108 15.6066 6.03148 15.2411 5.8801C14.8757 5.72872 14.5633 5.47238 14.3436 5.14348C14.1238 4.81458 14.0065 4.4279 14.0065 4.03234C14.0065 3.50191 14.2172 2.9932 14.5923 2.61813C14.9674 2.24305 15.4761 2.03234 16.0065 2.03234ZM4.0065 12.0323C3.61094 12.0323 3.22426 11.915 2.89536 11.6953C2.56646 11.4755 2.31011 11.1632 2.15874 10.7977C2.00736 10.4323 1.96776 10.0301 2.04493 9.64216C2.1221 9.2542 2.31258 8.89783 2.59228 8.61813C2.87199 8.33842 3.22836 8.14794 3.61632 8.07077C4.00428 7.9936 4.40641 8.03321 4.77186 8.18458C5.13732 8.33596 5.44967 8.5923 5.66944 8.9212C5.8892 9.2501 6.0065 9.63678 6.0065 10.0323C6.0065 10.5628 5.79578 11.0715 5.42071 11.4466C5.04564 11.8216 4.53693 12.0323 4.0065 12.0323ZM16.0065 18.0323C15.6109 18.0323 15.2243 17.915 14.8954 17.6953C14.5665 17.4755 14.3101 17.1632 14.1587 16.7977C14.0074 16.4323 13.9678 16.0301 14.0449 15.6422C14.1221 15.2542 14.3126 14.8978 14.5923 14.6181C14.872 14.3384 15.2284 14.1479 15.6163 14.0708C16.0043 13.9936 16.4064 14.0332 16.7719 14.1846C17.1373 14.336 17.4497 14.5923 17.6694 14.9212C17.8892 15.2501 18.0065 15.6368 18.0065 16.0323C18.0065 16.5628 17.7958 17.0715 17.4207 17.4466C17.0456 17.8216 16.5369 18.0323 16.0065 18.0323Z"
    fill="currentColor" />
</svg>