<svg width="81" height="81" viewBox="0 0 81 81" fill="none" xmlns="http://www.w3.org/2000/svg">
<path fill-rule="evenodd" clip-rule="evenodd" d="M28.0401 12.9297C21.4159 12.9297 16.0459 18.2997 16.0459 24.9239C16.0459 31.5482 21.4159 36.9181 28.0401 36.9181C34.6644 36.9181 40.0344 31.5482 40.0344 24.9239C40.0344 18.2997 34.6644 12.9297 28.0401 12.9297ZM21.3421 24.9239C21.3421 21.2247 24.3409 18.2258 28.0401 18.2258C31.7393 18.2258 34.7382 21.2247 34.7382 24.9239C34.7382 28.6231 31.7393 31.622 28.0401 31.622C24.3409 31.622 21.3421 28.6231 21.3421 24.9239Z" fill="#161616"/>
<path fill-rule="evenodd" clip-rule="evenodd" d="M9.34615 0H71.6538C76.8157 0 81 4.1844 81 9.34615V71.6538C81 76.8157 76.8157 81 71.6538 81H9.34615C4.18443 81 0 76.8157 0 71.6538V9.34615C0 4.18443 4.1844 0 9.34615 0ZM6.23077 71.6538V70.379L56.1878 38.6292C57.3499 37.8906 58.8586 38.0024 59.8992 38.904L74.7692 51.7905V71.6538C74.7692 73.3745 73.3745 74.7692 71.6538 74.7692H9.34615C7.62559 74.7692 6.23077 73.3745 6.23077 71.6538ZM61.8843 32.4L74.7692 43.5662V9.34615C74.7692 7.62559 73.3745 6.23077 71.6538 6.23077H9.34615C7.62559 6.23077 6.23077 7.62559 6.23077 9.34615V62.9981L54.6896 32.2003C56.8875 30.7351 59.7708 30.8152 61.8843 32.4Z" fill="#161616"/>
</svg>
