<svg viewBox="0 0 800 800" fill="none" xmlns="http://www.w3.org/2000/svg">
  <path opacity="0.3" fill-rule="evenodd" clip-rule="evenodd"
    d="M148.599 88.8588C310.118 -41.8879 547.637 -27.2357 691.65 127.003C835.663 281.243 834.012 519.208 692.509 671.392L148.599 88.8588ZM146.269 90.7593L690.453 673.586C684.631 679.755 678.576 685.78 672.29 691.65C665.26 698.214 658.056 704.475 650.694 710.434L106.784 127.901C113.234 120.965 119.974 114.207 127.004 107.643C133.29 101.773 139.716 96.1455 146.269 90.7593ZM600.706 744.966C616.341 735.843 631.503 725.563 646.07 714.121L102.789 132.262C90.3766 146.011 79.0821 160.433 68.91 175.407L600.706 744.966ZM62.2454 185.548L590.132 750.92C573.185 760.125 555.727 768.006 537.907 774.569L35.0744 236.03C42.8425 218.701 51.9012 201.824 62.2454 185.548ZM458.211 794.867C478.908 791.819 499.423 787.141 519.549 780.825L27.5755 253.916C19.8963 273.563 13.8238 293.709 9.36521 314.149L458.211 794.867ZM4.15162 343.121L428.949 798.084C403.564 799.935 378.05 799.369 352.782 796.397L0.618188 419.225C-0.616085 393.813 0.565967 368.321 4.15162 343.121ZM107.643 672.289C52.6025 613.34 18.8392 542.162 6.02869 468.216L304.277 787.643C231.383 769.798 162.684 731.238 107.643 672.289Z"
    fill="url(#paint0_radial_115_439)" />
  <defs>
    <radialGradient id="paint0_radial_115_439" cx="0" cy="0" r="1" gradientUnits="userSpaceOnUse"
      gradientTransform="translate(-212.769 459.808) rotate(-0.304789) scale(1021.98)">
      <stop stop-color="#FF39B0" />
      <stop offset="0.223324" stop-color="#7C1B6D" />
      <stop offset="1" stop-color="#191717" />
    </radialGradient>
  </defs>
</svg>