<svg xmlns="http://www.w3.org/2000/svg" viewBox="0 0 1458.998 460.372">
  <g id="home-hero-ground" transform="translate(-0.501 -0.027)">
    <path id="Path_3" data-name="Path 3" d="M1459,175.37,730,1" fill="none" stroke="#ffcdfa" stroke-width="2" />
    <path id="Path_4" data-name="Path 4" d="M1458.5,191.1,730,1" fill="none" stroke="#ffcdfa" stroke-width="2" />
    <path id="Path_5" data-name="Path 5" d="M1459,210.031,730,1" fill="none" stroke="#ffcdfa" stroke-width="2" />
    <path id="Path_6" data-name="Path 6" d="M1459,233.494,730,1" fill="none" stroke="#ffcdfa" stroke-width="2" />
    <path id="Path_7" data-name="Path 7" d="M1459,262.822,730,1" fill="none" stroke="#ffcdfa" stroke-width="2" />
    <path id="Path_8" data-name="Path 8" d="M1459,300.149,730,1" fill="none" stroke="#ffcdfa" stroke-width="2" />
    <path id="Path_9" data-name="Path 9" d="M1459,350.274,730,1" fill="none" stroke="#ffcdfa" stroke-width="2" />
    <path id="Path_10" data-name="Path 10" d="M1459,420.662,730,1" fill="none" stroke="#ffcdfa" stroke-width="2" />
    <path id="Path_11" data-name="Path 11" d="M1366.11,459.588,730,1" fill="none" stroke="#ffcdfa" stroke-width="2" />
    <path id="Path_12" data-name="Path 12" d="M1204.56,459.588,730,1" fill="none" stroke="#ffcdfa" stroke-width="2" />
    <path id="Path_13" data-name="Path 13" d="M1044.02,459.588,730,1" fill="none" stroke="#ffcdfa" stroke-width="2" />
    <path id="Path_14" data-name="Path 14" d="M883.474,459.588,730,1" fill="none" stroke="#ffcdfa" stroke-width="2" />
    <path id="Path_15" data-name="Path 15" d="M723.942,459.588,730,1" fill="none" stroke="#ffcdfa" stroke-width="2" />
    <path id="Path_16" data-name="Path 16" d="M1,175.371,730,1" fill="none" stroke="#ffcdfa" stroke-width="2" />
    <path id="Path_17" data-name="Path 17" d="M1.5,191.1,730,1" fill="none" stroke="#ffcdfa" stroke-width="2" />
    <path id="Path_18" data-name="Path 18" d="M1,210.031,730,1" fill="none" stroke="#ffcdfa" stroke-width="2" />
    <path id="Path_19" data-name="Path 19" d="M1,233.494,730,1" fill="none" stroke="#ffcdfa" stroke-width="2" />
    <path id="Path_20" data-name="Path 20" d="M1,262.822,730,1" fill="none" stroke="#ffcdfa" stroke-width="2" />
    <path id="Path_21" data-name="Path 21" d="M1,300.149,730,1" fill="none" stroke="#ffcdfa" stroke-width="2" />
    <path id="Path_22" data-name="Path 22" d="M1,350.274,730,1" fill="none" stroke="#ffcdfa" stroke-width="2" />
    <path id="Path_23" data-name="Path 23" d="M1,420.661,730,1" fill="none" stroke="#ffcdfa" stroke-width="2" />
    <path id="Path_24" data-name="Path 24" d="M93.892,459.588,730,1" fill="none" stroke="#ffcdfa" stroke-width="2" />
    <path id="Path_25" data-name="Path 25" d="M255.443,459.588,730,1" fill="none" stroke="#ffcdfa" stroke-width="2" />
    <path id="Path_26" data-name="Path 26" d="M415.985,459.588,730,1" fill="none" stroke="#ffcdfa" stroke-width="2" />
    <path id="Path_27" data-name="Path 27" d="M576.526,459.588,730,1" fill="none" stroke="#ffcdfa" stroke-width="2" />
    <path id="Path_28" data-name="Path 28" d="M1459,403.6H5.039" fill="none" stroke="#ffcdfa" stroke-width="2" />
    <path id="Path_29" data-name="Path 29" d="M1459,359.339H5.039" fill="none" stroke="#ffcdfa" stroke-width="2" />
    <path id="Path_30" data-name="Path 30" d="M1459,323.079H5.039" fill="none" stroke="#ffcdfa" stroke-width="2" />
    <path id="Path_31" data-name="Path 31" d="M1459,294.284H5.039" fill="none" stroke="#ffcdfa" stroke-width="2" />
    <path id="Path_32" data-name="Path 32" d="M1459,269.754H5.039" fill="none" stroke="#ffcdfa" stroke-width="2" />
    <path id="Path_33" data-name="Path 33" d="M1459,249.491H5.039" fill="none" stroke="#ffcdfa" stroke-width="2" />
    <path id="Path_34" data-name="Path 34" d="M1459,231.894H5.039" fill="none" stroke="#ffcdfa" stroke-width="2" />
    <path id="Path_35" data-name="Path 35" d="M1459,216.43H5.039" fill="none" stroke="#ffcdfa" stroke-width="2" />
    <path id="Path_36" data-name="Path 36" d="M1459,202.565H5.039" fill="none" stroke="#ffcdfa" stroke-width="2" />
    <path id="Path_37" data-name="Path 37" d="M1459,190.834H5.039" fill="none" stroke="#ffcdfa" stroke-width="2" />
    <path id="Path_38" data-name="Path 38" d="M1459,180.7H5.039" fill="none" stroke="#ffcdfa" stroke-width="2" />
    <path id="Path_39" data-name="Path 39" d="M1459,171.1H5.039" fill="none" stroke="#ffcdfa" stroke-width="2" />
  </g>
</svg>