<svg width="385" height="385" viewBox="0 0 385 385" fill="none" xmlns="http://www.w3.org/2000/svg">
<path d="M180.455 360.909H24.061V24.06H180.455C187.096 24.06 192.485 18.67 192.485 12.03C192.485 5.39 187.095 0 180.455 0H12.03C5.39 0 0 5.389 0 12.03V372.939C0 379.58 5.39 384.969 12.03 384.969H180.454C187.095 384.969 192.484 379.579 192.484 372.939C192.485 366.298 187.095 360.909 180.455 360.909Z" fill="white" fill-opacity="0.5"/>
<path d="M381.481 184.087L298.472 99.8866C293.768 95.1346 286.153 95.1466 281.461 99.8866C276.757 104.627 276.757 112.326 281.461 117.066L344.019 180.526H96.279C89.638 180.526 84.249 185.964 84.249 192.677C84.249 199.39 89.639 204.828 96.279 204.828H344.019L281.461 268.288C276.757 273.04 276.757 280.727 281.461 285.467C286.165 290.219 293.78 290.219 298.472 285.467L381.469 201.267C386.113 196.587 386.161 188.755 381.481 184.087Z" fill="white" fill-opacity="0.5"/>
</svg>
