<svg width="128" height="19" viewBox="0 0 128 19" fill="none" xmlns="http://www.w3.org/2000/svg">
<path d="M118.176 1.46352C118.326 1.00287 118.977 1.00287 119.127 1.46353L120.622 6.06509C120.689 6.2711 120.881 6.41058 121.098 6.41058H125.936C126.42 6.41058 126.622 7.03039 126.23 7.31509L122.316 10.159C122.14 10.2863 122.067 10.512 122.134 10.718L123.629 15.3196C123.779 15.7803 123.252 16.1633 122.86 15.8786L118.945 13.0347C118.77 12.9074 118.533 12.9074 118.358 13.0347L114.443 15.8786C114.051 16.1633 113.524 15.7803 113.674 15.3196L115.169 10.718C115.236 10.512 115.163 10.2863 114.987 10.159L111.073 7.31509C110.681 7.03039 110.883 6.41058 111.367 6.41058H116.205C116.422 6.41058 116.614 6.2711 116.681 6.06509L118.176 1.46352Z" fill="black"/>
<path d="M90.8325 1.46352C90.9822 1.00287 91.6339 1.00287 91.7835 1.46353L93.2787 6.06509C93.3456 6.2711 93.5376 6.41058 93.7542 6.41058H98.5926C99.0769 6.41058 99.2783 7.03039 98.8865 7.31509L94.9721 10.159C94.7969 10.2863 94.7236 10.512 94.7905 10.718L96.2856 15.3196C96.4353 15.7803 95.9081 16.1633 95.5162 15.8786L91.6019 13.0347C91.4267 12.9074 91.1894 12.9074 91.0141 13.0347L87.0998 15.8786C86.7079 16.1633 86.1807 15.7803 86.3304 15.3196L87.8255 10.718C87.8924 10.512 87.8191 10.2863 87.6439 10.159L83.7295 7.31509C83.3377 7.03039 83.5391 6.41058 84.0234 6.41058H88.8618C89.0784 6.41058 89.2704 6.2711 89.3373 6.06509L90.8325 1.46352Z" fill="black"/>
<path d="M63.489 1.46352C63.6386 1.00287 64.2903 1.00287 64.44 1.46353L65.9352 6.06509C66.0021 6.2711 66.1941 6.41058 66.4107 6.41058H71.2491C71.7334 6.41058 71.9348 7.03039 71.543 7.31509L67.6286 10.159C67.4534 10.2863 67.3801 10.512 67.447 10.718L68.9421 15.3196C69.0918 15.7803 68.5646 16.1633 68.1727 15.8786L64.2584 13.0347C64.0831 12.9074 63.8458 12.9074 63.6706 13.0347L59.7563 15.8786C59.3644 16.1633 58.8372 15.7803 58.9869 15.3196L60.482 10.718C60.5489 10.512 60.4756 10.2863 60.3004 10.159L56.386 7.31509C55.9942 7.03039 56.1956 6.41058 56.6799 6.41058H61.5183C61.7349 6.41058 61.9269 6.2711 61.9938 6.06509L63.489 1.46352Z" fill="black"/>
<path d="M36.1455 1.46352C36.2951 1.00287 36.9468 1.00287 37.0965 1.46353L38.5917 6.06509C38.6586 6.2711 38.8506 6.41058 39.0672 6.41058H43.9056C44.3899 6.41058 44.5913 7.03039 44.1995 7.31509L40.2851 10.159C40.1099 10.2863 40.0366 10.512 40.1035 10.718L41.5986 15.3196C41.7483 15.7803 41.2211 16.1633 40.8292 15.8786L36.9149 13.0347C36.7396 12.9074 36.5023 12.9074 36.3271 13.0347L32.4128 15.8786C32.0209 16.1633 31.4937 15.7803 31.6434 15.3196L33.1385 10.718C33.2054 10.512 33.1321 10.2863 32.9569 10.159L29.0425 7.31509C28.6507 7.03039 28.8521 6.41058 29.3364 6.41058H34.1748C34.3914 6.41058 34.5834 6.2711 34.6503 6.06509L36.1455 1.46352Z" fill="black"/>
<path d="M8.80196 1.46352C8.95163 1.00287 9.60334 1.00287 9.75301 1.46353L11.2482 6.06509C11.3151 6.2711 11.5071 6.41058 11.7237 6.41058H16.5621C17.0464 6.41058 17.2478 7.03039 16.8559 7.31509L12.9416 10.159C12.7664 10.2863 12.693 10.512 12.76 10.718L14.2551 15.3196C14.4048 15.7803 13.8776 16.1633 13.4857 15.8786L9.57138 13.0347C9.39613 12.9074 9.15884 12.9074 8.98359 13.0347L5.06926 15.8786C4.67741 16.1633 4.15017 15.7803 4.29984 15.3196L5.79498 10.718C5.86192 10.512 5.78859 10.2863 5.61335 10.159L1.69902 7.31509C1.30716 7.03039 1.50855 6.41058 1.99291 6.41058H6.83129C7.0479 6.41058 7.23988 6.2711 7.30682 6.06509L8.80196 1.46352Z" fill="black"/>
</svg>
